<?xml version="1.0" encoding="UTF-8"?>
<svg viewBox="0 0 168 168" version="1.1" xmlns="http://www.w3.org/2000/svg">
    <title>Spotify Icon</title>
    <g fill="#1DB954" fill-rule="nonzero">
        <path d="M83.996,0.277 C37.747,0.277 0.253,37.77 0.253,84.019 C0.253,130.27 37.747,167.76 83.996,167.76 C130.25,167.76 167.74,130.27 167.74,84.019 C167.74,37.773 130.25,0.281 83.995,0.281 L83.996,0.277 Z M122.4,121.057 C120.9,123.517 117.68,124.297 115.22,122.787 C95.558,110.777 70.806,108.057 41.656,114.717 C38.847,115.357 36.047,113.597 35.407,110.787 C34.764,107.977 36.517,105.177 39.333,104.537 C71.234,97.249 98.596,100.387 120.67,113.877 C123.13,115.387 123.91,118.597 122.4,121.057 Z M132.65,98.255 C130.76,101.327 126.74,102.297 123.67,100.407 C101.16,86.571 67.436,82.441 40.495,90.638 C37.064,91.617 33.387,89.617 32.406,86.195 C31.427,82.765 33.416,79.095 36.847,78.115 C67.743,68.715 105.152,73.305 131.246,89.352 C134.319,91.242 135.289,95.262 133.397,98.333 L132.65,98.255 Z M133.53,74.511 C106.54,58.48 62.01,57.006 36.241,64.827 C32.103,66.082 27.684,63.661 26.429,59.524 C25.174,55.386 27.594,50.968 31.731,49.712 C61.154,40.946 111.041,42.752 142.151,61.359 C145.898,63.579 147.141,68.406 144.921,72.136 C142.706,75.88 137.876,77.116 134.142,74.896 L133.53,74.511 Z"></path>
    </g>
</svg>
